<?xml version="1.0" encoding="utf-8"?>
<!-- Generator: Adobe Illustrator 26.4.1, SVG Export Plug-In . SVG Version: 6.00 Build 0)  -->
<svg version="1.1" id="Layer_1" xmlns="http://www.w3.org/2000/svg" xmlns:xlink="http://www.w3.org/1999/xlink" x="0px" y="0px"
	 viewBox="0 0 340.25 41.06" style="enable-background:new 0 0 340.25 41.06;" xml:space="preserve">
<style type="text/css">
	.st0{fill:url(#SVGID_1_);}
	.st1{fill:url(#SVGID_00000080922867117450455540000001698540595071107722_);}
	.st2{fill:url(#SVGID_00000078024747674629777420000016642759554632559028_);}
	.st3{fill:url(#SVGID_00000011724399757968124940000010342624972703443134_);}
</style>
<g>
	<linearGradient id="SVGID_1_" gradientUnits="userSpaceOnUse" x1="83.2183" y1="22.5339" x2="338.0366" y2="40.3525">
		<stop  offset="0" style="stop-color:#FFFFFF;stop-opacity:0"/>
		<stop  offset="0" style="stop-color:#EBEBEC;stop-opacity:0.0797"/>
		<stop  offset="0.0337" style="stop-color:#CCCECF;stop-opacity:0.1107"/>
		<stop  offset="0.0778" style="stop-color:#AAACAF;stop-opacity:0.1513"/>
		<stop  offset="0.1274" style="stop-color:#8D8F92;stop-opacity:0.197"/>
		<stop  offset="0.1814" style="stop-color:#757679;stop-opacity:0.2467"/>
		<stop  offset="0.2412" style="stop-color:#5F6063;stop-opacity:0.3017"/>
		<stop  offset="0.3086" style="stop-color:#4C4C4E;stop-opacity:0.3637"/>
		<stop  offset="0.3873" style="stop-color:#38383A;stop-opacity:0.4362"/>
		<stop  offset="0.4846" style="stop-color:#1E1E1F;stop-opacity:0.5257"/>
		<stop  offset="0.6211" style="stop-color:#070708;stop-opacity:0.6513"/>
		<stop  offset="1" style="stop-color:#000000"/>
	</linearGradient>
	<polygon class="st0" points="338.06,40.05 83.19,23.01 83.2,22.84 338.07,39.88 	"/>
	<g>
		<path d="M44.03,38.2c-2.53-1.46-4.52-3.49-5.98-6.1c-1.46-2.61-2.18-5.56-2.18-8.86s0.73-6.25,2.18-8.86
			c1.46-2.61,3.45-4.64,5.98-6.1c2.53-1.46,5.34-2.18,8.45-2.18c3.14,0,5.97,0.73,8.5,2.18c2.53,1.46,4.51,3.49,5.95,6.1
			c1.44,2.61,2.16,5.56,2.16,8.86s-0.72,6.25-2.16,8.86c-1.44,2.61-3.42,4.64-5.95,6.1c-2.53,1.46-5.36,2.18-8.5,2.18
			C49.37,40.38,46.56,39.65,44.03,38.2z M59.2,35.73c1.98-1.15,3.55-2.81,4.7-4.97c1.15-2.16,1.73-4.66,1.73-7.51
			s-0.58-5.34-1.73-7.49c-1.15-2.14-2.72-3.79-4.7-4.94c-1.98-1.15-4.22-1.73-6.72-1.73s-4.74,0.58-6.72,1.73
			c-1.98,1.15-3.55,2.8-4.7,4.94c-1.15,2.14-1.73,4.64-1.73,7.49s0.58,5.35,1.73,7.51c1.15,2.16,2.72,3.82,4.7,4.97
			c1.98,1.15,4.22,1.73,6.72,1.73S57.21,36.88,59.2,35.73z"/>
		<path d="M118.76,6.93v33.12h-3.36V13.6l-11.81,26.45h-2.45L89.34,13.69v26.35h-3.36V6.93h3.55l12.82,28.7l12.82-28.7H118.76z"/>
		<path d="M128.55,9.23v12.53h12.72v2.78h-12.72v12.72h14.16v2.78h-17.52V6.45h17.52v2.78H128.55z"/>
		<path d="M151.35,6.49v21.12c0,3.33,0.79,5.79,2.38,7.39c1.58,1.6,3.75,2.4,6.5,2.4c2.75,0,4.9-0.79,6.46-2.38
			c1.55-1.58,2.33-4.06,2.33-7.42V6.49h3.36v21.07c0,4.26-1.13,7.46-3.38,9.6c-2.26,2.14-5.19,3.22-8.81,3.22
			c-3.62,0-6.55-1.07-8.81-3.22c-2.26-2.14-3.38-5.34-3.38-9.6V6.49H151.35z"/>
		<path d="M210.01,6.69v4.46h-14.16v9.84h11.04v4.46h-11.04v14.59h-5.47V6.69H210.01z"/>
		<path d="M219.37,6.69v33.36h-5.47V6.69H219.37z"/>
		<path d="M230.31,39.21c-1.79-0.78-3.2-1.9-4.22-3.34c-1.02-1.44-1.54-3.12-1.54-5.04h5.86c0.13,1.44,0.7,2.62,1.7,3.55
			c1.01,0.93,2.42,1.39,4.25,1.39c1.89,0,3.36-0.46,4.42-1.37c1.06-0.91,1.58-2.09,1.58-3.53c0-1.12-0.33-2.03-0.98-2.74
			c-0.66-0.7-1.47-1.25-2.45-1.63c-0.98-0.38-2.33-0.8-4.06-1.25c-2.18-0.58-3.94-1.16-5.3-1.75c-1.36-0.59-2.52-1.51-3.48-2.76
			s-1.44-2.91-1.44-4.99c0-1.92,0.48-3.6,1.44-5.04s2.3-2.54,4.03-3.31c1.73-0.77,3.73-1.15,6-1.15c3.23,0,5.88,0.81,7.94,2.42
			c2.06,1.62,3.21,3.83,3.43,6.65h-6.05c-0.1-1.22-0.67-2.26-1.73-3.12c-1.06-0.86-2.45-1.3-4.18-1.3c-1.57,0-2.85,0.4-3.84,1.2
			c-0.99,0.8-1.49,1.95-1.49,3.46c0,1.02,0.31,1.86,0.94,2.52c0.62,0.66,1.42,1.18,2.38,1.56c0.96,0.38,2.27,0.8,3.94,1.25
			c2.21,0.61,4.01,1.22,5.4,1.82c1.39,0.61,2.58,1.54,3.55,2.81c0.98,1.26,1.46,2.95,1.46,5.06c0,1.7-0.46,3.3-1.37,4.8
			c-0.91,1.5-2.24,2.71-3.98,3.62c-1.74,0.91-3.8,1.37-6.17,1.37C234.12,40.38,232.1,39.99,230.31,39.21z"/>
		<path d="M253.62,14.51c1.52-2.59,3.58-4.62,6.19-6.07c2.61-1.46,5.46-2.18,8.57-2.18c3.55,0,6.71,0.87,9.48,2.62
			c2.77,1.74,4.78,4.22,6.02,7.42h-6.58c-0.86-1.76-2.06-3.07-3.6-3.94c-1.54-0.86-3.31-1.3-5.33-1.3c-2.21,0-4.18,0.5-5.9,1.49
			c-1.73,0.99-3.08,2.42-4.06,4.27c-0.98,1.86-1.46,4.02-1.46,6.48c0,2.46,0.49,4.62,1.46,6.48c0.98,1.86,2.33,3.29,4.06,4.3
			c1.73,1.01,3.7,1.51,5.9,1.51c2.02,0,3.79-0.43,5.33-1.3c1.54-0.86,2.74-2.18,3.6-3.94h6.58c-1.25,3.2-3.26,5.66-6.02,7.39
			c-2.77,1.73-5.93,2.59-9.48,2.59c-3.14,0-6-0.73-8.59-2.18c-2.59-1.46-4.65-3.48-6.17-6.07c-1.52-2.59-2.28-5.52-2.28-8.78
			S252.1,17.1,253.62,14.51z"/>
		<path d="M309.17,33.23h-13.97l-2.4,6.82h-5.71l11.95-33.41h6.34l11.95,33.41h-5.76L309.17,33.23z M307.64,28.77l-5.42-15.5
			l-5.47,15.5H307.64z"/>
		<path d="M326.79,35.63h11.28v4.42h-16.75V6.69h5.47V35.63z"/>
	</g>
	<g>
		<path d="M2.52,25.83c-0.15-0.01-0.28-0.02-0.41-0.03c-0.34-0.02-0.51-0.21-0.51-0.58c0-1.1,0-2.21,0-3.31
			c0-0.7,0.5-0.64,0.91-0.69c0.2-1,0.2-1,1.16-1c7.37,0,14.74,0,22.11,0c0.39,0,0.79-0.09,1.1,0.39c0.12,0.18,0.57,0.1,0.9,0.14
			c0.01-0.2,0.02-0.36,0.02-0.52c0.02-0.46,0.25-0.7,0.66-0.71c0.43-0.02,0.86-0.02,1.28,0c0.41,0.02,0.63,0.26,0.61,0.74
			c-0.02,0.39,0,0.79,0,1.2c0.45,0,0.87,0,1.3,0c0.22-0.92,0.49-1.06,1.6-0.8c1.01-5.51,3.71-9.69,8.27-12.3
			c3.31-1.9,6.84-2.36,10.48-1.43c7.47,1.92,12.35,9.33,11.98,17.38c-0.4,8.57-6.27,14.89-13.14,16
			c-8.56,1.39-16.19-5.08-17.58-13.95c-1.35,0.11-1.45,0.06-1.59-0.83c-0.42,0-0.84,0-1.31,0c0,0.4-0.01,0.8,0,1.19
			c0.02,0.52-0.22,0.73-0.65,0.74c-0.35,0.01-0.69,0.01-1.04,0c-0.68-0.01-0.83-0.17-0.86-0.92c0-0.09-0.01-0.18-0.02-0.28
			c-0.46,0.01-0.89-0.05-1.22,0.43c-0.1,0.14-0.43,0.12-0.65,0.12c-6.69,0.01-13.39,0-20.08,0c-0.76,0-1.51,0-2.27,0
			C2.72,26.83,2.63,26.75,2.52,25.83z M62.97,23.51C62.96,14.4,56.14,7.58,48.52,7.62c-7.99,0.04-14.46,7.1-14.46,15.87
			c-0.01,8.76,6.49,15.96,14.43,15.93C56.28,39.39,62.91,32.76,62.97,23.51z M2.81,25.39c0.41,0.07,0.76,0.17,1.12,0.17
			c7.27,0.01,14.54,0.01,21.81,0.01c0.1,0,0.22,0.04,0.29-0.01c0.2-0.14,0.37-0.33,0.56-0.49c-0.18-0.13-0.36-0.28-0.55-0.38
			c-0.08-0.04-0.19-0.01-0.29-0.01c-2.42,0-4.83,0-7.25,0c-1.05,0-2.1,0-3.16,0s-2.1,0-3.16,0c-1.07,0-2.14,0-3.21,0
			c-1.05,0-2.11-0.01-3.16,0c-0.99,0.01-1.99,0.03-3,0.04C2.81,24.95,2.81,25.18,2.81,25.39z M33.06,25.79
			c-0.12-0.94-0.24-1.83-0.36-2.72c-0.08-0.65-0.1-0.67-0.76-0.56c0,1.08,0,2.17,0,3.28C32.32,25.79,32.68,25.79,33.06,25.79z
			 M30.38,22.91c0,0.75,0,1.47,0,2.18c0.43,0,0.82,0,1.27,0c-0.04-0.75-0.07-1.45-0.1-2.18C31.1,22.91,30.74,22.91,30.38,22.91z
			 M26.9,22.67c0,1.03,0,2.06,0,3.08c0.31,0,0.57,0,0.85,0c0.01-0.16,0.03-0.31,0.03-0.44c-0.03-0.67-0.09-1.33-0.1-2
			C27.67,22.58,27.51,22.56,26.9,22.67z M3.49,24.4c0,0.02,0,0.03,0,0.05c7.56,0,15.11,0,22.67,0c0-0.02,0-0.03,0-0.05
			C18.61,24.4,11.05,24.4,3.49,24.4z M2.58,25.43c-0.08-0.79-0.14-1.55-0.22-2.31c-0.04-0.35-0.24-0.42-0.56-0.3c0,0.68,0,1.34,0,2
			C1.8,25.53,1.81,25.54,2.58,25.43z M28.08,23.81c0.72,0,1.37,0,2.02,0c0-0.27,0-0.49,0-0.7c-0.7,0-1.36,0-2.02,0
			C28.08,23.36,28.08,23.57,28.08,23.81z M28.12,22.82c0.56,0,1.14,0.01,1.71-0.01c0.09,0,0.18-0.14,0.27-0.22
			c-0.1-0.08-0.2-0.23-0.3-0.24c-0.48-0.03-0.95,0-1.43-0.01C28.06,22.33,28,22.49,28.12,22.82z M28.14,24.16
			c-0.04,0.05-0.08,0.11-0.12,0.16c0.11,0.09,0.22,0.25,0.34,0.26c0.49,0.03,0.98,0.01,1.48,0.01c0.32,0.01,0.35-0.15,0.24-0.43
			C29.41,24.16,28.78,24.16,28.14,24.16z M29.08,25.24c0.28,0,0.56,0.01,0.83-0.01c0.07,0,0.14-0.1,0.21-0.15
			c-0.06-0.06-0.12-0.18-0.18-0.18c-0.55-0.01-1.11-0.01-1.66,0c-0.07,0-0.14,0.1-0.21,0.16c0.08,0.06,0.15,0.17,0.23,0.18
			C28.56,25.26,28.82,25.25,29.08,25.24z M28.09,25.6c0,0.04,0,0.08,0,0.11c0.67,0,1.35,0,2.02,0c0-0.04,0-0.08,0-0.11
			C29.43,25.6,28.76,25.6,28.09,25.6z M28.11,26.09c0,0.03,0,0.06,0,0.09c0.66,0,1.32,0,1.98,0c0-0.03,0-0.06,0-0.09
			C29.43,26.09,28.77,26.09,28.11,26.09z"/>
	</g>
</g>
</svg>
